<svg xmlns="http://www.w3.org/2000/svg" width="48" height="48" viewBox="0 0 48 48">
    <defs>
        <linearGradient id="u3pyca652a" x1="-60.384%" x2="61.429%" y1="130.931%" y2="33.968%">
            <stop offset="0%" stop-color="#A3DBFF"/>
            <stop offset="100%" stop-color="#346AA0"/>
        </linearGradient>
    </defs>
    <g fill="none" fill-rule="evenodd">
        <g>
            <g>
                <g>
                    <g>
                        <g>
                            <g>
                                <path fill="#FFF" d="M0 0H48V48H0z" transform="translate(-876 -544) translate(120 525) translate(130 8) translate(600 7) translate(26 4)"/>
                                <g fill-rule="nonzero" stroke="#346AA0">
                                    <path fill="url(#u3pyca652a)" d="M13.662.285c.059.051.191.152.397.287.352.23.776.462 1.272.68 2.76 1.21 6.315 1.454 10.672.106l.666-.206-.018.696-.021.674c-.019.534-.043 1.13-.073 1.77-.082 1.794-.203 3.585-.363 5.374-.32 3.516-.752 6.05-1.34 7.273-1.116 2.32-2.84 4.356-5.002 6.12-1.765 1.431-3.708 2.627-5.782 3.556-.263.116-.453.194-.558.234l-.178.068-.178-.068c-.105-.04-.295-.118-.557-.234-2.074-.93-4.017-2.125-5.782-3.556-2.164-1.764-3.887-3.8-5.003-6.12-.588-1.223-1.019-3.757-1.34-7.273-.16-1.789-.28-3.58-.362-5.374-.039-.814-.07-1.63-.095-2.444L0 1.152l.665.206c4.357 1.348 7.913 1.104 10.672-.108.496-.217.92-.449 1.273-.68.205-.134.338-.235.397-.286L13.334 0l.328.284v.001z" transform="translate(-876 -544) translate(120 525) translate(130 8) translate(600 7) translate(26 4) translate(11 11)"/>
                                    <path fill="#FFF" d="M16.762 17.066L16.152 13.524 18.732 11.017 15.167 10.501 13.571 7.277 11.976 10.501 8.411 11.017 10.991 13.524 10.381 17.066 13.571 15.394 16.762 17.066z" transform="translate(-876 -544) translate(120 525) translate(130 8) translate(600 7) translate(26 4) translate(11 11)"/>
                                </g>
                            </g>
                        </g>
                    </g>
                </g>
            </g>
        </g>
    </g>
</svg>
