<svg xmlns="http://www.w3.org/2000/svg" width="48" height="48" viewBox="0 0 48 48">
    <defs>
        <linearGradient id="54eb6ep1va" x1="-303.965%" x2="86.649%" y1="130.931%" y2="33.968%">
            <stop offset="0%" stop-color="#A3DBFF"/>
            <stop offset="100%" stop-color="#346AA0"/>
        </linearGradient>
        <linearGradient id="pf56rvatrb" x1="-395.768%" x2="96.154%" y1="130.931%" y2="33.968%">
            <stop offset="0%" stop-color="#A3DBFF"/>
            <stop offset="100%" stop-color="#346AA0"/>
        </linearGradient>
    </defs>
    <g fill="none" fill-rule="evenodd">
        <g>
            <g>
                <g>
                    <g>
                        <g>
                            <path fill="#FFF" d="M0 0H48V48H0z" transform="translate(-276 -544) translate(120 525) translate(130 8) translate(0 7) translate(26 4)"/>
                            <g>
                                <path fill="url(#54eb6ep1va)" stroke="#346AA0" stroke-width=".8" d="M31.605 18.337l-.76 16.846-27.991.417-.417-17.262 29.168-.001zM18.462 19.81c-1.63-.618-3.498-.612-5.217.162-1.718.774-2.96 2.17-3.577 3.8-.618 1.631-.613 3.498.162 5.217.774 1.719 2.169 2.96 3.8 3.578 1.63.618 3.498.612 5.217-.162 1.714-.775 2.956-2.173 3.575-3.807.618-1.632.614-3.498-.16-5.21-.774-1.72-2.169-2.96-3.8-3.578zm12.793-6.983l.416 4.056-.03.657-3.653-.028-3.728-4.685h6.995zm-11.47 0l3.7 4.65-2.165-.017-3.702-4.633h2.167zm-6.644 0l3.674 4.598-2.455-.019-3.659-4.579h2.44zM4.895 7.662l4.181 2.957-7.284 2.208h4.432l3.631 4.544-7.809-.06-.436-4.113L.416 9.022l4.479-1.36zM4 14.327c-.152-.147-.387-.287-1.372.056-.185.184-.298.438-.298.712 0 .274.113.527.298.712.184.184.438.298.712.298.275 0 .53-.113.714-.297.182-.182.296-.433.296-.713 0-.28-.114-.532-.296-.713h0zm-.59-4.845c-.158-.158-.316-.385-1.426-.001-.182.182-.295.433-.295.713 0 .28.113.532.295.713.184.185.439.297.715.297.275 0 .53-.112.714-.297.182-.181.296-.432.296-.713 0-.274-.114-.527-.299-.712zm7.871-3.757l4.182 2.959-2.232.676L9.05 6.402l2.231-.677zm6.145-1.864l4.163 2.966-1.97.597-4.184-2.959 1.991-.604zM28.746.429L30.32 4.18l-4.578 1.387-4.164-2.966L28.745.429z" transform="translate(-276 -544) translate(120 525) translate(130 8) translate(0 7) translate(26 4) translate(8 6)"/>
                                <path fill="url(#pf56rvatrb)" fill-rule="nonzero" d="M21.205 24.026c1.296 2.856.019 6.232-2.845 7.52-2.854 1.3-6.217.01-7.514-2.846-1.297-2.856-.02-6.232 2.844-7.52 2.864-1.29 6.237-.01 7.515 2.846zm-7.351-2.482c-2.663 1.198-3.85 4.336-2.645 6.99 1.21 2.663 4.34 3.853 6.987 2.648 2.663-1.197 3.85-4.336 2.645-6.993-1.189-2.655-4.325-3.843-6.987-2.645zm4.556.494l-2.026 5.334-3.233-1.179 3.044.74 2.215-4.895z" transform="translate(-276 -544) translate(120 525) translate(130 8) translate(0 7) translate(26 4) translate(8 6)"/>
                            </g>
                        </g>
                    </g>
                </g>
            </g>
        </g>
    </g>
</svg>
