<svg xmlns="http://www.w3.org/2000/svg" width="48" height="48" viewBox="0 0 48 48">
    <defs>
        <linearGradient id="uyimcvu4wa" x1="70.515%" x2="12.124%" y1="50%" y2="80.826%">
            <stop offset="0%" stop-color="#346AA0"/>
            <stop offset="100%" stop-color="#7FADDB"/>
        </linearGradient>
    </defs>
    <g fill="none" fill-rule="evenodd">
        <g>
            <g>
                <g>
                    <g>
                        <path fill="#FFF" d="M0 0H48V48H0z" transform="translate(-586 -544) translate(125 533) translate(440 7) translate(21 4)"/>
                        <g fill-rule="nonzero">
                            <path fill="#346AA0" d="M15 0c8.284 0 15 6.716 15 15 0 8.284-6.716 15-15 15-8.284 0-15-6.716-15-15C0 6.716 6.716 0 15 0zm0 .938C7.233.938.937 7.232.937 15c0 7.767 6.296 14.063 14.063 14.063S29.063 22.767 29.063 15 22.767.937 15 .937v.001z" transform="translate(-586 -544) translate(125 533) translate(440 7) translate(21 4) translate(9 9)"/>
                            <path fill="url(#uyimcvu4wa)" d="M13.787 5.493c.675-.658 1.751-.658 2.426 0l1.221 1.181c.13.127.313.186.493.16l1.683-.238c.932-.136 1.803.497 1.962 1.425l.293 1.673c.032.18.143.334.305.42l1.501.795c.834.438 1.167 1.461.75 2.306l-.747 1.526c-.08.163-.08.355 0 .518l.747 1.526c.415.85.086 1.862-.75 2.306l-1.501.796c-.161.085-.274.24-.305.419l-.293 1.673c-.16.928-1.03 1.56-1.962 1.425l-1.683-.238c-.18-.026-.362.033-.493.16l-1.221 1.18c-.675.657-1.75.657-2.426 0l-1.221-1.18c-.13-.127-.313-.186-.493-.16l-1.682.238c-.932.136-1.803-.496-1.962-1.425l-.294-1.673c-.03-.18-.143-.335-.305-.42l-1.501-.795c-.834-.438-1.167-1.461-.75-2.306l.747-1.526c.08-.163.08-.355 0-.518l-.747-1.526c-.417-.845-.084-1.867.75-2.305l1.501-.797c.161-.085.274-.24.305-.419l.293-1.673c.16-.928 1.03-1.56 1.962-1.425l1.683.238c.18.026.362-.033.493-.16l1.221-1.181zm3.521 10.468c-1.168.001-2.114.947-2.116 2.115 0 1.166.95 2.115 2.116 2.115 1.168-.001 2.114-.947 2.116-2.115 0-1.166-.95-2.115-2.116-2.115zm1.908-5.175c-.225-.225-.59-.225-.816 0l-7.616 7.613c-.154.144-.218.36-.165.565.052.204.212.364.416.416.205.052.421-.012.565-.166l7.616-7.613c.225-.225.225-.59 0-.815zm-1.908 6.329c.53 0 .962.431.962.961-.023.514-.447.92-.962.92-.515 0-.939-.406-.962-.92 0-.53.432-.961.962-.961zm-4.616-7.306c-1.168.001-2.114.947-2.116 2.115 0 1.166.95 2.115 2.116 2.115 1.168-.001 2.114-.947 2.116-2.115 0-1.166-.95-2.115-2.116-2.115zm0 1.154c.53 0 .962.431.962.961-.023.514-.447.92-.962.92-.515 0-.939-.406-.962-.92 0-.53.432-.961.962-.961z" transform="translate(-586 -544) translate(125 533) translate(440 7) translate(21 4) translate(9 9)"/>
                        </g>
                    </g>
                </g>
            </g>
        </g>
    </g>
</svg>
