<svg xmlns="http://www.w3.org/2000/svg" width="48" height="48" viewBox="0 0 48 48">
    <defs>
        <linearGradient id="6ofhasl83a" x1="72.254%" x2="8.914%" y1="50%" y2="58.123%">
            <stop offset="0%" stop-color="#346AA0"/>
            <stop offset="100%" stop-color="#7FADDB"/>
        </linearGradient>
    </defs>
    <g fill="none" fill-rule="evenodd">
        <g>
            <g>
                <g>
                    <g>
                        <g>
                            <path d="M0 0H48V48H0z" transform="translate(-586 -544) translate(120 525) translate(5 8) translate(440) translate(21 11)"/>
                            <g fill-rule="nonzero" transform="translate(-586 -544) translate(120 525) translate(5 8) translate(440) translate(21 11) translate(8 10)">
                                <path fill="url(#6ofhasl83a)" d="M8.315 25.468c-4.232.269-7.677-3.437-7.677-7.677s3.445-7.946 7.677-7.678c4.211.267 12.515 1.522 16.743 2.13 3.032.437 5.547 2.484 5.547 5.548 0 3.063-2.513 5.127-5.547 5.547-4.16.575-12.532 1.863-16.743 2.13z"/>
                                <circle cx="8.484" cy="17.791" r="4.532" fill="#FFF"/>
                                <g fill="#FFF">
                                    <path d="M4.926 2.765H0c0 1.233 1 2.232 2.232 2.232H7.16c0-1.233-1-2.232-2.233-2.232zM15.953 5.412c-.42 0-.813-.262-.958-.68-.185-.53.095-1.109.624-1.293l3.488-1.215-.318-.857c-.194-.525.074-1.109.6-1.304.525-.194 1.109.074 1.303.6l.677 1.826c.095.255.082.538-.034.785-.116.246-.326.436-.584.525l-4.464 1.556c-.11.039-.224.057-.334.057z" transform="translate(7.143 .637)"/>
                                </g>
                                <g>
                                    <path fill="#346AA0" d="M29.405 13.568c-1.085-1.022-2.596-1.716-4.257-1.955l-1.674-.243c-2.936-.427-6.844-.996-10.247-1.408l-1.74-3.69h2.815c.352 0 .637-.286.637-.638 0-1.582-1.287-2.87-2.87-2.87H7.144c-.352 0-.637.286-.637.638 0 1.583 1.287 2.87 2.87 2.87h.702l1.658 3.516c-1.27-.141-2.427-.251-3.38-.311-2.08-.132-4.092.61-5.667 2.088C.98 13.169 0 15.438 0 17.791c0 2.352.98 4.621 2.689 6.225.325.305.669.579 1.028.82L1.64 26.912c-.249.249-.249.652 0 .901.125.125.288.187.45.187.164 0 .327-.062.452-.187l2.334-2.335c.947.422 1.965.642 3.007.642.156 0 .314-.005.472-.015 3.374-.214 9.39-1.078 13.781-1.709l1.834-.262 3.68 3.68c.124.124.287.186.45.186.164 0 .327-.062.451-.187.25-.249.25-.652 0-.901l-3.008-3.009c1.502-.279 2.862-.939 3.863-1.884 1.2-1.134 1.835-2.596 1.835-4.228 0-1.631-.635-3.091-1.837-4.223zM7.914 4.039h4.156c.653 0 1.215.395 1.462.958H9.376c-.653 0-1.216-.394-1.462-.958zM24.97 22.706c-.853.118-1.902.269-3.014.428-4.37.628-10.357 1.487-13.68 1.698-1.725.11-3.399-.51-4.714-1.745-1.454-1.364-2.287-3.295-2.287-5.297 0-2.001.833-3.932 2.287-5.296 1.216-1.141 2.739-1.758 4.324-1.758.13 0 .26.005.39.013 3.681.233 10.501 1.226 15.015 1.882l1.676.243c2.489.359 5 2.018 5 4.916 0 2.919-2.51 4.572-4.997 4.916z"/>
                                    <path fill="#346AA0" d="M8.484 12.62c-2.85 0-5.17 2.32-5.17 5.17 0 2.851 2.32 5.17 5.17 5.17 2.851 0 5.17-2.319 5.17-5.17 0-2.85-2.319-5.17-5.17-5.17zm0 9.065c-2.147 0-3.894-1.747-3.894-3.895 0-2.147 1.747-3.894 3.894-3.894 2.148 0 3.895 1.747 3.895 3.894 0 2.148-1.747 3.895-3.895 3.895zM23.096 6.687c.068 0 .135-.006.202-.014l1.399 5.469c.073.288.332.48.617.48.052 0 .105-.007.158-.02.341-.088.547-.435.46-.776l-1.416-5.537 3.588-1.25c.417-.145.763-.457.951-.856.188-.399.208-.865.055-1.278l-.677-1.827C28.117.224 27.165-.213 26.31.103c-.413.153-.743.458-.927.86-.184.4-.201.85-.048 1.263l.091.247-2.874 1.001c-.86.3-1.316 1.244-1.016 2.104.231.663.858 1.109 1.56 1.109zm-.124-2.009l3.488-1.215c.161-.057.293-.175.366-.33.073-.155.081-.333.022-.493l-.318-.857c-.035-.094-.03-.197.011-.288.042-.092.118-.162.212-.197.043-.015.087-.023.13-.023.154 0 .299.094.355.246l.676 1.827c.035.094.03.2-.012.291-.043.091-.122.163-.217.196L23.22 5.39c-.04.014-.082.02-.124.02-.16 0-.303-.1-.356-.252-.069-.197.036-.412.232-.48z"/>
                                    <path fill="#FFF" d="M24.449 19.236h-1.393l-2.824-2.823c-.249-.25-.652-.25-.901 0-.25.249-.25.652 0 .901l1.922 1.922h-.119c-.352 0-.637.286-.637.638 0 .352.285.637.637.637h3.315c.352 0 .637-.285.637-.637 0-.352-.285-.638-.637-.638z"/>
                                </g>
                            </g>
                        </g>
                    </g>
                </g>
            </g>
        </g>
    </g>
</svg>
