<svg xmlns="http://www.w3.org/2000/svg" width="48" height="48" viewBox="0 0 48 48">
    <defs>
        <linearGradient id="6mtpioah5a" x1="-60.384%" x2="61.429%" y1="130.931%" y2="33.968%">
            <stop offset="0%" stop-color="#A3DBFF"/>
            <stop offset="100%" stop-color="#346AA0"/>
        </linearGradient>
    </defs>
    <g fill="none" fill-rule="evenodd">
        <g>
            <g>
                <g>
                    <g>
                        <path fill="#FFF" d="M0 0H48V48H0z" transform="translate(-1026 -544) translate(125 533) translate(880 7) translate(21 4)"/>
                        <g>
                            <g>
                                <g fill="url(#6mtpioah5a)" fill-rule="nonzero" transform="translate(-1026 -544) translate(125 533) translate(880 7) translate(21 4) translate(1 12) translate(.15 14.8)">
                                    <path d="M0.975 0.6L45.659 0.6 45.659 7.515 0.975 7.515z"/>
                                </g>
                                <path stroke="#346AA0" stroke-width="1.2" d="M1.575 1.2L45.059 1.2 45.059 6.915 1.575 6.915z" transform="translate(-1026 -544) translate(125 533) translate(880 7) translate(21 4) translate(1 12) translate(.15 14.8)"/>
                            </g>
                            <path stroke="#346AA0" stroke-linecap="round" stroke-width="1.2" d="M1.612.288v25.368M45.487.288v25.368M1.612 5.163h43.77" transform="translate(-1026 -544) translate(125 533) translate(880 7) translate(21 4) translate(1 12)"/>
                            <path stroke="#346AA0" stroke-linecap="square" stroke-width="1.2" d="M8.437 5.163v9.75m5.85-9.75v9.75m5.85-9.75v9.75m5.85-9.75v9.75m5.85-9.75v9.75m5.851-9.75v9.75" transform="translate(-1026 -544) translate(125 533) translate(880 7) translate(21 4) translate(1 12)"/>
                        </g>
                    </g>
                </g>
            </g>
        </g>
    </g>
</svg>
