<svg xmlns="http://www.w3.org/2000/svg" width="48" height="48" viewBox="0 0 48 48">
    <defs>
        <linearGradient id="42qoz9shta" x1="93.079%" x2="-48.164%" y1="50%" y2="50%">
            <stop offset="0%" stop-color="#346AA0"/>
            <stop offset="100%" stop-color="#7FADDB"/>
        </linearGradient>
    </defs>
    <g fill="none" fill-rule="evenodd">
        <g>
            <g>
                <g>
                    <g>
                        <path fill="#FFF" d="M0 0H48V48H0z" transform="translate(-806 -544) translate(125 533) translate(660 7) translate(21 4)"/>
                        <g fill-rule="nonzero">
                            <path fill="#346AA0" d="M.59 0C.295 0 .057.238.057.532v33.114c0 .293.238.531.531.531h24.189c.294 0 .532-.238.532-.531V.532c0-.141-.056-.277-.156-.376-.1-.1-.235-.156-.376-.156H.589zm.531 8.901h11.03v24.213H1.122V8.9zm12.094 24.213V8.9h11.031v24.213h-11.03z" transform="translate(-806 -544) translate(125 533) translate(660 7) translate(21 4) translate(11 6)"/>
                            <path fill="#346AA0" d="M9.95 3.008c-.294 0-.532.238-.532.531v1.823c0 .19.101.365.266.46.164.095.367.095.531 0 .165-.095.266-.27.266-.46V3.539c0-.293-.238-.531-.532-.531zM15.418 5.894c.293 0 .531-.238.531-.532V3.539c0-.293-.238-.531-.531-.531-.294 0-.532.238-.532.531v1.823c0 .294.238.532.532.532zM2.95 33.2c-.294 0-.532.238-.532.532v1.822c0 .19.101.366.266.46.164.096.367.096.531 0 .165-.094.266-.27.266-.46v-1.822c0-.294-.238-.532-.532-.532zM22.418 36.086c.293 0 .531-.238.531-.532v-1.822c0-.294-.238-.532-.531-.532-.294 0-.532.238-.532.532v1.822c0 .294.238.532.532.532zM9.95 22.869c.293 0 .531-.238.531-.532v-5.026c0-.294-.238-.532-.532-.532-.293 0-.531.238-.531.532v5.026c0 .294.238.532.531.532zM15.418 16.78c-.294 0-.532.237-.532.531v5.026c0 .294.238.532.532.532.293 0 .531-.238.531-.532v-5.026c0-.294-.238-.531-.531-.532z" transform="translate(-806 -544) translate(125 533) translate(660 7) translate(21 4) translate(11 6)"/>
                            <path fill="url(#42qoz9shta)" d="M24.246 7.838L13.215 7.838 13.215 1.063 24.246 1.063zM1.121 1.063L12.152 1.063 12.152 7.838 1.121 7.838z" transform="translate(-806 -544) translate(125 533) translate(660 7) translate(21 4) translate(11 6)"/>
                        </g>
                    </g>
                </g>
            </g>
        </g>
    </g>
</svg>
